# xmcd
#
# Track frame offsets:
#  150
#  9282
#  21232
#  34242
#  45187
#  55130
#  70557
#  90532
#  100357
#  111592
#  125350
#  136667
#  147430
#  157202
#  177547
#  187947
#
# Disc length: 2634 seconds
#
# Revision: 0
# Processed by: cddbd v1.5.1PL0 Copyright (c) Steve Scherf et al.
# Submitted via: AltoMP3_Maker 3.0
#
DISCID=d50a4810
DTITLE=Dorado - Country Cowboy Vol. 1
DYEAR=1900
DGENRE=
TTITLE0=Born a Women
TTITLE1=You Made me what I Am
TTITLE2=Since I Met You Baby
TTITLE3=Kind of the Road
TTITLE4=Cowboy Boots
TTITLE5=For The Good Times
TTITLE6=El Paso
TTITLE7=Sticks and Stones
TTITLE8=Send me the Pillow that you Dream on
TTITLE9=Home is where you're Happy
TTITLE10=Minnesota Bay
TTITLE11=Sixteen Tons
TTITLE12=Release Me
TTITLE13=Love Hurts
TTITLE14=Daddy Sang Bass
TTITLE15=Hey Porter
EXTD=
EXTT0=
EXTT1=
EXTT2=
EXTT3=
EXTT4=
EXTT5=
EXTT6=
EXTT7=
EXTT8=
EXTT9=
EXTT10=
EXTT11=
EXTT12=
EXTT13=
EXTT14=
EXTT15=
PLAYORDER=
